<svg width="40" height="40" viewBox="0 0 40 40" fill="none" xmlns="http://www.w3.org/2000/svg">
<g clip-path="url(#clip0_2_61)">
<path d="M30 13.3333H28.3334V10C28.3334 5.4 24.6 1.66666 20 1.66666C15.4 1.66666 11.6667 5.4 11.6667 10V13.3333H10C8.16669 13.3333 6.66669 14.8333 6.66669 16.6667V33.3333C6.66669 35.1667 8.16669 36.6667 10 36.6667H30C31.8334 36.6667 33.3334 35.1667 33.3334 33.3333V16.6667C33.3334 14.8333 31.8334 13.3333 30 13.3333ZM15 10C15 7.23333 17.2334 5 20 5C22.7667 5 25 7.23333 25 10V13.3333H15V10ZM30 33.3333H10V16.6667H30V33.3333ZM20 28.3333C21.8334 28.3333 23.3334 26.8333 23.3334 25C23.3334 23.1667 21.8334 21.6667 20 21.6667C18.1667 21.6667 16.6667 23.1667 16.6667 25C16.6667 26.8333 18.1667 28.3333 20 28.3333Z" fill="#858585"/>
</g>
<defs>
<clipPath id="clip0_2_61">
<rect width="40" height="40" fill="white"/>
</clipPath>
</defs>
</svg>
